<?xml version="1.0" encoding="iso-8859-1"?>
<!-- Generator: Adobe Illustrator 19.0.0, SVG Export Plug-In . SVG Version: 6.00 Build 0)  -->
<svg version="1.1" id="Layer_1" xmlns="http://www.w3.org/2000/svg" xmlns:xlink="http://www.w3.org/1999/xlink" x="0px" y="0px"
	 viewBox="0 0 512 512" style="enable-background:new 0 0 512 512;" xml:space="preserve">
<polygon style="fill:#E6AF78;" points="295.293,201.11 295.293,170.129 215.627,170.129 215.627,201.11 255.461,236.517 "/>
<path style="fill:#D29B6E;" d="M215.627,170.129v32.688c50.179,18.079,79.666-27.169,79.666-27.169v-5.519H215.627z"/>
<path style="fill:#707487;" d="M383.806,258.025c-0.032-17.053-10.816-35.238-29.374-40.399l-37.107-7.689l-10.537-15.913
	c-1.514-2.011-4.399-2.356-6.345-0.758l-45.04,38.918l0,0l0,0l-45.186-38.749c-1.952-1.59-4.835-1.235-6.342,0.782l-10.478,15.953
	l-37.078,7.828c-18.538,5.232-29.254,23.456-29.222,40.509l0.021,10.978c0.012,6.421,5.967,11.616,13.301,11.602l101.799-0.191
	l26.557-0.05l101.799-0.191c7.334-0.014,13.268-5.231,13.256-11.651L383.806,258.025z"/>
<g>
	<path style="fill:#5B5D6E;" d="M159.401,250l-23.64-17.613c-5.646,7.61-8.684,17.031-8.667,26.12l0.021,10.978
		c0.012,6.421,5.967,11.616,13.301,11.602l27.42-0.052V268.59C167.835,261.498,164.769,254.74,159.401,250z"/>
	<path style="fill:#5B5D6E;" d="M383.827,269.003l-0.021-10.978c-0.021-10.892-4.434-22.239-12.449-30.366L349.179,250
		c-5.369,4.74-8.435,11.498-8.435,18.59v12.12l29.827-0.056C377.903,280.641,383.839,275.424,383.827,269.003z"/>
</g>
<path style="fill:#785550;" d="M191.561,110.739c0.724-17.85,10.121-40.291,12.443-45.185c0.296-0.624,0.463-0.959,0.463-0.959
	c7.172-0.908,14.041-1.46,20.588-1.723c1.871-0.075,3.715-0.126,5.533-0.155c49.986-0.804,79.758,15.08,79.758,15.08l9.355,21.483
	c13.236-40.501,8.568-74.726,4.331-84.02c-32.207,4.524-80.193-22.024-110.193,0.17l0,0c-19.062,0.035-32.199,15.892-32.161,35.553
	c0.037,18.979,8.921,56.907,8.921,56.907l0.962,6.198c-0.001-0.636-0.025-1.583,0-2.232
	C191.562,111.823,191.559,110.77,191.561,110.739z"/>
<path style="fill:#F0C087;" d="M319.212,124.755c0.047-0.353,0.091-0.705,0.133-1.057c1.115-9.271,2.189-21.004-1.901-29.594
	c-2.546-5.348-4.738-10.881-7.1-16.308c0,0-29.772-15.884-79.758-15.08c-1.818,0.029-3.662,0.08-5.533,0.155
	c-6.548,0.262-13.417,0.814-20.588,1.723c0,0-0.166,0.335-0.463,0.959c-17.241,36.341-19.977,81.504,11.636,111.507
	c7.25,6.88,16.057,12.334,25.855,15.04c1.217,0.336,2.446,0.63,3.686,0.878c0.24,0.048,0.482,0.096,0.723,0.141
	c3.1,0.576,6.265,0.877,9.483,0.872C292.691,193.925,314.977,156.805,319.212,124.755z"/>
<path style="fill:#E6AF78;" d="M213.421,124.194c-1.081-49.953,7.478-47.441,7.478-47.441c21.114-4.727,56.072-1.39,91.422,5.668
	c-0.653-1.546-1.308-3.091-1.977-4.626c0,0-29.772-15.884-79.758-15.08c-1.818,0.029-3.662,0.08-5.533,0.155
	c-6.548,0.262-13.417,0.814-20.588,1.723c0,0-0.166,0.335-0.463,0.959c-17.241,36.341-19.977,81.504,11.636,111.507
	c7.25,6.88,16.057,12.334,25.855,15.04c1.217,0.336,2.446,0.63,3.686,0.878c0.24,0.048,0.482,0.096,0.723,0.141
	c3.092,0.575,6.25,0.875,9.459,0.871C243.764,190.043,214.221,161.235,213.421,124.194z"/>
<path style="fill:#694B4B;" d="M324.03,15.259c-32.207,4.524-80.193-22.024-110.193,0.17c0,0-23.503,27.019-9.372,49.164
	c7.172-0.908,14.041-1.46,20.588-1.723c0.039-0.002,0.078-0.002,0.117-0.004c1.83-0.072,3.636-0.122,5.415-0.151
	c49.986-0.804,79.758,15.08,79.758,15.08l9.355,21.483C332.935,58.777,328.268,24.553,324.03,15.259z"/>
<path style="fill:#515262;" d="M242.148,245.487l13.253-13.304l-45.186-38.749c-1.952-1.59-4.835-1.235-6.342,0.782l-10.478,15.953
	l35.5,48.62L242.148,245.487z"/>
<path style="fill:#E4EAF6;" d="M282.008,258.691l35.317-48.754l-10.537-15.913c-1.514-2.011-4.399-2.356-6.345-0.758l-45.04,38.918
	l13.304,13.253L282.008,258.691z"/>
<g>
	<path style="fill:#515262;" d="M282.008,258.691l35.317-48.754l-10.537-15.913c-1.514-2.011-4.399-2.356-6.345-0.758l-45.04,38.918
		l13.304,13.253L282.008,258.691z"/>
	<polyline style="fill:#515262;" points="263.695,257.541 247.098,256.987 242.214,280.895 268.771,280.845 263.695,257.541 	"/>
	<path style="fill:#515262;" d="M242.156,249.913c0.009,4.869,4,8.845,8.869,8.836l8.852-0.017c4.869-0.009,8.845-4,8.836-8.869
		l-0.008-4.425l-13.304-13.253l-13.253,13.304L242.156,249.913z"/>
</g>
<circle style="fill:#FFD782;" cx="255.996" cy="480.155" r="24.035"/>
<circle style="fill:#C3E678;" cx="416.241" cy="479.854" r="24.035"/>
<circle style="fill:#FF6464;" cx="95.761" cy="480.455" r="24.035"/>
<path d="M183.417,108.584l0.018,9.201c0.039,20.564,7.623,41.374,20.808,57.095c13.892,16.563,32.024,25.68,51.068,25.68
	c0.037,0,0.075,0,0.112,0c19.082-0.036,37.203-9.22,51.024-25.86c13.082-15.75,20.563-36.581,20.524-57.149l-0.033-17.576
	c9.663-41.816,5.993-76.097,2.666-86.21c-1.097-3.337-4.308-5.375-7.658-5.14c-0.532-0.039-1.076-0.026-1.625,0.053
	c-10.58,1.521-23.776-1.084-37.745-3.841c-23.011-4.542-48.986-9.663-69.203,3.97c-0.02,0-0.04-0.003-0.061-0.003
	c-22.655,0.042-39.064,18.014-39.017,42.733l0,0l0,0C174.328,69.608,182,102.637,183.417,108.584z M294.89,165.101
	c-10.923,13.151-24.95,20.409-39.496,20.436c-0.028,0-0.054,0-0.083,0c-14.524,0-28.573-7.212-39.559-20.311
	c-10.959-13.066-17.263-30.369-17.295-47.469l-0.013-6.954c-0.022-12.422,7.965-30.19,12.666-39.117
	c50.474-5.63,84.597,7.706,93.35,11.656l7.457,17.353l0.032,16.884C311.981,134.69,305.763,152.011,294.89,165.101z M213.339,23.827
	c0.418-0.001,0.823-0.044,1.222-0.11c1.96,0.321,4.041-0.123,5.749-1.417c15.131-11.454,37.613-7.015,59.355-2.725
	c11.853,2.339,23.195,4.578,33.816,4.578c1.036,0,2.062-0.03,3.084-0.074c1.507,9.375,2.591,27.263-0.17,49.427
	c-0.667-0.955-1.536-1.759-2.573-2.318c-1.696-0.917-42.214-22.309-107.853-14.024c-2.434,0.143-4.752,1.462-6.066,3.73
	c-0.316,0.545-3.966,6.896-7.749,15.672c-1.566-9.046-2.824-18.374-2.837-25.056C189.29,37.753,196.708,23.858,213.339,23.827z"/>
<path d="M140.386,287.578c0.014,0,0.029,0,0.043,0l131.217-0.246c0,0,0,0,0.001,0c0.005,0,0.01,0,0.015,0h0.001l98.922-0.186
	c5.358-0.01,10.438-1.875,14.307-5.25c4.107-3.583,6.456-8.629,6.446-13.841l-0.021-10.897
	c-0.035-18.742-12.03-41.018-34.885-47.328c-0.161-0.044-0.322-0.083-0.486-0.117l-34.085-7.01l-8.826-13.229
	c-0.084-0.126-0.172-0.25-0.264-0.371c-2.243-2.957-5.804-4.723-9.523-4.723c-2.744,0-5.426,0.954-7.552,2.688
	c-0.048,0.04-0.096,0.08-0.144,0.121l-40.17,34.456l-40.298-34.304c-0.047-0.04-0.095-0.08-0.144-0.119
	c-2.12-1.715-4.79-2.66-7.517-2.66c-3.737,0-7.309,1.779-9.551,4.759c-0.091,0.121-0.179,0.245-0.262,0.372l-8.775,13.262
	l-34.059,7.138c-0.163,0.034-0.324,0.074-0.485,0.119c-22.832,6.396-34.743,28.716-34.707,47.459l0.02,10.897
	C119.624,279.059,128.942,287.579,140.386,287.578z M247.056,250.765l8.395-8.564l8.632,8.644l0.04,21.479l-17.026,0.032
	L247.056,250.765z M376.295,257.187l0.021,10.897c0.002,1.122-0.706,1.976-1.301,2.494c-1.123,0.98-2.748,1.544-4.459,1.547
	l-91.411,0.171l-0.017-9.039c0.162,0.011,0.323,0.024,0.487,0.024c0.126,0,0.254-0.003,0.382-0.01
	c2.124-0.108,4.102-1.111,5.445-2.76l34.835-42.799l32.386,6.661C368.146,228.777,376.271,244.179,376.295,257.187z
	 M302.615,200.921l5.386,8.075l-28.955,35.574l-12.603-12.623L302.615,200.921z M208.073,201.098l36.323,30.92l-12.376,12.625
	l-29.292-35.467L208.073,201.098z M158.116,224.739l32.378-6.786l35.257,42.69c1.356,1.641,3.344,2.631,5.471,2.721
	c0.107,0.005,0.213,0.007,0.32,0.007c0.172,0,0.344-0.014,0.515-0.026l0.017,9.039l-91.674,0.172c-0.005,0-0.01,0-0.015,0
	c-3.391,0-5.756-2.116-5.759-4.019l-0.02-10.898C134.581,244.634,142.647,229.2,158.116,224.739z"/>
<path d="M408.534,375.708l0.09,48.072c0.008,4.143,3.369,7.497,7.511,7.497c0.005,0,0.01,0,0.015,0
	c4.148-0.008,7.505-3.377,7.497-7.525l-0.09-48.072c-0.041-21.788-17.779-39.485-39.558-39.485c-0.025,0-0.05,0-0.076,0
	l-120.682,0.226l-0.046-24.537c-0.008-4.143-3.369-7.497-7.511-7.497c-0.005,0-0.01,0-0.015,0c-4.148,0.008-7.505,3.377-7.497,7.525
	l0.046,24.537l-120.682,0.227c-10.531,0.02-20.448,4.163-27.923,11.666c-7.475,7.503-11.581,17.436-11.561,27.967l0.09,48.072
	c0.008,4.144,3.369,7.497,7.511,7.497c0.004,0,0.009,0,0.014,0c4.148-0.008,7.505-3.377,7.497-7.525l-0.09-48.072
	c-0.012-6.519,2.538-12.676,7.182-17.337c4.644-4.661,10.791-7.235,17.309-7.247l120.681-0.227l0.136,72.609
	c0.008,4.143,3.369,7.497,7.511,7.497c0.005,0,0.01,0,0.015,0c4.148-0.008,7.505-3.377,7.497-7.525l-0.136-72.609l120.682-0.226
	c0.016,0,0.031,0,0.047,0C397.506,351.217,408.509,362.195,408.534,375.708z"/>
<path d="M255.941,448.604c-8.426,0.016-16.342,3.313-22.29,9.283c-5.947,5.97-9.214,13.897-9.198,22.325
	c0.033,17.362,14.185,31.488,31.546,31.488c0.004,0,0.055,0,0.06,0c8.426-0.016,16.342-3.312,22.29-9.282s9.214-13.898,9.199-22.325
	C287.515,462.73,273.363,448.604,255.941,448.604z M267.707,491.815c-3.116,3.128-7.262,4.854-11.676,4.862l-0.032,7.511v-7.511
	c-9.094,0-16.507-7.399-16.524-16.494c-0.017-9.111,7.382-16.539,16.525-16.556c9.094,0,16.507,7.399,16.524,16.494
	C272.534,484.535,270.822,488.688,267.707,491.815z"/>
<path d="M416.182,448.304c-8.426,0.016-16.342,3.313-22.29,9.283c-5.947,5.97-9.214,13.897-9.198,22.325
	c0.033,17.362,14.185,31.488,31.546,31.488c0.004,0,0.055,0,0.06,0c8.426-0.016,16.342-3.312,22.29-9.282
	c5.948-5.97,9.214-13.898,9.198-22.325C447.755,462.43,433.604,448.304,416.182,448.304z M427.948,491.514
	c-3.116,3.128-7.262,4.854-11.676,4.862l-0.032,7.511v-7.511c-9.094,0-16.507-7.399-16.524-16.494
	c-0.017-9.111,7.382-16.539,16.525-16.556c9.094,0,16.507,7.399,16.524,16.494C432.774,484.234,431.063,488.387,427.948,491.514z"/>
<path d="M95.701,448.906c-17.396,0.033-31.521,14.212-31.488,31.606C64.245,497.875,78.397,512,95.759,512c0.004,0,0.055,0,0.06,0
	c8.426-0.016,16.342-3.312,22.29-9.282c5.947-5.97,9.214-13.898,9.198-22.325C127.274,463.031,113.122,448.906,95.701,448.906z
	 M107.467,492.116c-3.116,3.128-7.262,4.854-11.676,4.862l-0.032,7.511v-7.511c-9.094,0-16.507-7.399-16.524-16.494
	c-0.017-9.111,7.383-16.539,16.526-16.556c9.094,0,16.507,7.399,16.524,16.494C112.293,484.836,110.582,488.99,107.467,492.116z"/>
<g>
</g>
<g>
</g>
<g>
</g>
<g>
</g>
<g>
</g>
<g>
</g>
<g>
</g>
<g>
</g>
<g>
</g>
<g>
</g>
<g>
</g>
<g>
</g>
<g>
</g>
<g>
</g>
<g>
</g>
</svg>
